<svg xmlns="http://www.w3.org/2000/svg" style="display: none">

<symbol id="menu" viewBox="0 0 640 640">
   <path
            d="M96 160C96 142.3 110.3 128 128 128L512 128C529.7 128 544 142.3 544 160C544 177.7 529.7 192 512 192L128 192C110.3 192 96 177.7 96 160zM96 320C96 302.3 110.3 288 128 288L512 288C529.7 288 544 302.3 544 320C544 337.7 529.7 352 512 352L128 352C110.3 352 96 337.7 96 320zM544 480C544 497.7 529.7 512 512 512L128 512C110.3 512 96 497.7 96 480C96 462.3 110.3 448 128 448L512 448C529.7 448 544 462.3 544 480z"
          />
  </symbol>

<symbol id="light" viewBox="0 -960 960 960">
   <path
              d="M480-360q50 0 85-35t35-85q0-50-35-85t-85-35q-50 0-85 35t-35 85q0 50 35 85t85 35Zm0 80q-83 0-141.5-58.5T280-480q0-83 58.5-141.5T480-680q83 0 141.5 58.5T680-480q0 83-58.5 141.5T480-280ZM200-440H40v-80h160v80Zm720 0H760v-80h160v80ZM440-760v-160h80v160h-80Zm0 720v-160h80v160h-80ZM256-650l-101-97 57-59 96 100-52 56Zm492 496-97-101 53-55 101 97-57 59Zm-98-550 97-101 59 57-100 96-56-52ZM154-212l101-97 55 53-97 101-59-57Zm326-268Z"
            />
  </symbol>

<symbol id="dark" viewBox="0 -960 960 960">
 <path
              d="M480-120q-150 0-255-105T120-480q0-150 105-255t255-105q14 0 27.5 1t26.5 3q-41 29-65.5 75.5T444-660q0 90 63 153t153 63q55 0 101-24.5t75-65.5q2 13 3 26.5t1 27.5q0 150-105 255T480-120Zm0-80q88 0 158-48.5T740-375q-20 5-40 8t-40 3q-123 0-209.5-86.5T364-660q0-20 3-40t8-40q-78 32-126.5 102T200-480q0 116 82 198t198 82Zm-10-270Z"
            />
  </symbol>



<symbol id="x-mark" viewBox="0 0 640 640">
   <path
            d="M183.1 137.4C170.6 124.9 150.3 124.9 137.8 137.4C125.3 149.9 125.3 170.2 137.8 182.7L275.2 320L137.9 457.4C125.4 469.9 125.4 490.2 137.9 502.7C150.4 515.2 170.7 515.2 183.2 502.7L320.5 365.3L457.9 502.6C470.4 515.1 490.7 515.1 503.2 502.6C515.7 490.1 515.7 469.8 503.2 457.3L365.8 320L503.1 182.6C515.6 170.1 515.6 149.8 503.1 137.3C490.6 124.8 470.3 124.8 457.8 137.3L320.5 274.7L183.1 137.4z"
          />
  </symbol>

<symbol id="logo" viewBox="0 0 63.502 62.848">
   <g transform="translate(198.081,-75.955)">
              <path
                d="M-197.479 110.629c-.334 0-.602.269-.602.603v26.969c0 .334.268.603.602.603h9.853c.383 0 .58 0 .926-.278.345-.277.838-.832 1.084-1.11.246-.277.246-.277.876-.947.63-.671 1.89-2.012 2.617-2.778.727-.765.921-.954 1.018-1.216.045-.121.069-.256.097-.319v-20.924c0-.334-.269-.603-.603-.603zm3.707 4.703h2.552c.227 0 .41.183.41.411v4.241c0 .228-.183.411-.41.411h-2.552a.411.411 0 0 1-.411-.411v-4.241c0-.228.184-.411.411-.411zm6.152 0h2.551c.228 0 .411.183.411.411v4.241c0 .228-.183.411-.411.411h-2.551a.411.411 0 0 1-.411-.411v-4.241c0-.228.183-.411.411-.411zm-6.152 8.702h2.552c.227 0 .41.183.41.41v4.241c0 .228-.183.411-.41.411h-2.552a.411.411 0 0 1-.411-.411v-4.241c0-.227.184-.41.411-.41zm6.152 0h2.551c.228 0 .411.183.411.41v4.241c0 .228-.183.411-.411.411h-2.551a.411.411 0 0 1-.411-.411v-4.241c0-.227.183-.41.411-.41z"
              />
              <path
                d="M-135.181 110.629c.334 0 .602.269.602.603v26.969c0 .334-.268.603-.602.603h-9.853c-.383 0-.58 0-.926-.278-.345-.277-.838-.832-1.084-1.11-.246-.277-.246-.277-.876-.947-.63-.671-1.89-2.012-2.617-2.778-.727-.765-.921-.954-1.018-1.216-.045-.121-.069-.256-.097-.319v-20.924c0-.334.269-.603.603-.603zm-3.707 4.703h-2.552a.411.411 0 0 0-.411.411v4.241c0 .228.184.411.411.411h2.552c.228 0 .411-.183.411-.411v-4.241c0-.228-.183-.411-.411-.411zm-6.152 0h-2.551a.411.411 0 0 0-.411.411v4.241c0 .228.183.411.411.411h2.551c.228 0 .411-.183.411-.411v-4.241c0-.228-.183-.411-.411-.411zm6.152 8.702h-2.552a.411.411 0 0 0-.411.41v4.241c0 .228.184.411.411.411h2.552c.228 0 .411-.183.411-.411v-4.241c0-.227-.183-.41-.411-.41zm-6.152 0h-2.551a.411.411 0 0 0-.411.41v4.241c0 .228.183.411.411.411h2.551c.228 0 .411-.183.411-.411v-4.241c0-.227-.183-.41-.411-.41z"
              />
              <path
                d="M-166.25 105.615c-.897 0-8.254 2.246-10.475 2.856-2.221.609-2.536.704-2.693.937a.749.749 0 0 0-.119.321c-.024.07-.038.144-.038.222v23.067c0 .377.303.68.68.68h2.001v-.002h2.314c.226 0 .411-.167.44-.385v-19.377c0-.246.198-.444.444-.444h4.226c.246 0 .444.198.444.444v19.317c0 .246.198.444.444.444h2.314v.002h2.182c.214-.032.378-.215.378-.438v-19.325c0-.246.198-.444.444-.444h4.226c.246 0 .444.198.444.444v19.471c0 .246.198.444.444.444h2.314v.002h2.225c.377 0 .68-.303.68-.68V109.62c0-.276-.031-.449-.151-.582-.153-.169-.459-.28-2.68-.89-2.22-.609-9.596-2.823-10.492-2.824z"
              />
              <path
                d="M-184.126 102.016c-.407 0-.735.327-.735.734v5.729c0 .407.328.734.735.734h3.117v-.523c0-.083.015-.162.041-.236.025-.132.066-.248.132-.342.173-.248.52-.349 2.967-.998 2.446-.649 10.55-3.04 11.538-3.04 0 .001 9.111 2.359 11.557 3.008 2.447.648 2.784.767 2.952.947.133.142.16.326.166.62v.261h3.278c.407 0 .735-.327.735-.734v-5.729c0-.407-.328-.734-.735-.734z"
              />
              <path
                d="M-166.553 75.955c-.382 0-.69.308-.69.69v8.736h-.515a.46.46 0 0 0-.459.459v2.376c-1.199.22-2.352.643-3.408 1.252-3.085 1.781-5.08 4.981-5.323 8.535h-.001v.012c-.016.239-.025.478-.025.717h.001v.306c0 .306 0 .918.104 1.224.104.306.31.306 3.731.306h13.516c3.462 0 3.752 0 3.897-.306.145-.306.145-.918.143-1.301a12.9 12.9 0 0 0-.018-.81h-.001c-.2-3.604-2.205-6.864-5.331-8.669-1.056-.608-2.209-1.031-3.408-1.252v-2.376a.46.46 0 0 0-.459-.459h-.515v-1.872c.146.074.325.155.561.225.374.111.891.196 1.394.198.503.002.993-.078 1.583-.212.59-.134 1.28-.32 2.082-.372.801-.051 1.714.033 2.389.132.675.098 1.173.446 1.421.506.247.06.244-.168.274-1.051.029-.884.029-2.66.006-3.642-.023-.982-.068-1.169-.255-1.37-.187-.2-.517-.414-1.2-.532-.684-.118-1.721-.14-2.834-.038-1.113.103-2.302.33-3.218.323-.916-.007-1.558-.247-1.88-.367-.177-.066-.256-.096-.321-.11v-.555c0-.382-.308-.69-.69-.69z"
              />
              <path
                d="M-180.789 135.129c-.418 0-.868.458-1.162.756l-2.144 2.163c-.295.297-.315.755.103.755h35.43c.418 0 .398-.458.104-.755l-2.144-2.163c-.295-.298-.744-.756-1.162-.756h-28.228z"
              />
            </g>
  </symbol>


<symbol id="home" viewBox="0 0 640 640">
	<path d="M341.8 72.6C329.5 61.2 310.5 61.2 298.3 72.6L74.3 280.6C64.7 289.6 61.5 303.5 66.3 315.7C71.1 327.9 82.8 336 96 336L112 336L112 512C112 547.3 140.7 576 176 576L464 576C499.3 576 528 547.3 528 512L528 336L544 336C557.2 336 569 327.9 573.8 315.7C578.6 303.5 575.4 289.5 565.8 280.6L341.8 72.6zM304 384L336 384C362.5 384 384 405.5 384 432L384 528L256 528L256 432C256 405.5 277.5 384 304 384z"/></symbol>

<symbol id="about" viewBox="0 0 640 640">
	<path d="M320 312C386.3 312 440 258.3 440 192C440 125.7 386.3 72 320 72C253.7 72 200 125.7 200 192C200 258.3 253.7 312 320 312zM290.3 368C191.8 368 112 447.8 112 546.3C112 562.7 125.3 576 141.7 576L498.3 576C514.7 576 528 562.7 528 546.3C528 447.8 448.2 368 349.7 368L290.3 368z"/></symbol>

<symbol id="latest-jobs" viewBox="0 0 640 640">
	<path d="M328.3 88C328.3 57.1 353.4 32 384.3 32C415.2 32 440.3 57.1 440.3 88C440.3 118.9 415.2 144 384.3 144C353.4 144 328.3 118.9 328.3 88zM320.3 269.3L297.7 291.9C291.7 297.9 288.3 306 288.3 314.5L288.3 352C288.3 364.3 281.3 375 271.1 380.4C270.2 384.6 268.7 388.8 266.8 392.7L197.8 530.8L197 530.4L169.3 585.7C159.4 605.5 135.4 613.5 115.6 603.6L78.6 585C58.8 575.1 50.8 551.1 60.7 531.3L111.3 430.3C121.2 410.5 145.2 402.5 165 412.4L195.7 427.7L224 371.1C224.3 370.5 224.4 369.9 224.4 369.3L224.4 352.4C224.4 352.2 224.4 352.1 224.4 351.9L224.4 314.4C224.4 288.9 234.5 264.5 252.5 246.5L287.6 211.4C310.4 188.6 341.2 175.8 373.4 175.8C410.3 175.8 445.2 192.6 468.2 221.4L486.1 244C492.2 251.6 501.4 256 511.1 256L544.3 256C562 256 576.3 270.3 576.3 288C576.3 305.7 562 320 544.3 320L511.1 320C481.9 320 454.4 306.7 436.1 284L432.3 279.3L432.3 394.5L466.8 424.1C484.5 439.3 496.1 460.3 499.4 483.4L512 571.5C514.5 589 502.3 605.2 484.8 607.7C467.3 610.2 451.1 598 448.6 580.5L436 492.4C434.9 484.7 431 477.7 425.1 472.6L353.7 411.4C332.4 393.2 320.2 366.5 320.2 338.5L320.2 269.2zM320.4 435.1C322.8 437.4 325.2 439.7 327.8 441.9L373.8 481.3L371.6 488.9C367.1 504.6 358.7 518.9 347.2 530.4L278.9 598.7C266.4 611.2 246.1 611.2 233.6 598.7C221.1 586.2 221.1 565.9 233.6 553.4L302 485.1C305.8 481.3 308.6 476.5 310.1 471.3L320.4 435z"/></symbol>

<symbol id="caret" viewBox="0 0 640 640">
	<path d="M297.4 438.6C309.9 451.1 330.2 451.1 342.7 438.6L502.7 278.6C515.2 266.1 515.2 245.8 502.7 233.3C490.2 220.8 469.9 220.8 457.4 233.3L320 370.7L182.6 233.4C170.1 220.9 149.8 220.9 137.3 233.4C124.8 245.9 124.8 266.2 137.3 278.7L297.3 438.7z"/></symbol>



<symbol id="results" viewBox="0 0 640 640">
	<path d="M256 144C256 117.5 277.5 96 304 96L336 96C362.5 96 384 117.5 384 144L384 496C384 522.5 362.5 544 336 544L304 544C277.5 544 256 522.5 256 496L256 144zM64 336C64 309.5 85.5 288 112 288L144 288C170.5 288 192 309.5 192 336L192 496C192 522.5 170.5 544 144 544L112 544C85.5 544 64 522.5 64 496L64 336zM496 160L528 160C554.5 160 576 181.5 576 208L576 496C576 522.5 554.5 544 528 544L496 544C469.5 544 448 522.5 448 496L448 208C448 181.5 469.5 160 496 160z"/></symbol>

<symbol id="donate" viewBox="0 0 640 640">
	<path d="M320 48C306.7 48 296 58.7 296 72L296 84L294.2 84C257.6 84 228 113.7 228 150.2C228 183.6 252.9 211.8 286 215.9L347 223.5C352.1 224.1 356 228.5 356 233.7C356 239.4 351.4 243.9 345.8 243.9L272 244C256.5 244 244 256.5 244 272C244 287.5 256.5 300 272 300L296 300L296 312C296 325.3 306.7 336 320 336C333.3 336 344 325.3 344 312L344 300L345.8 300C382.4 300 412 270.3 412 233.8C412 200.4 387.1 172.2 354 168.1L293 160.5C287.9 159.9 284 155.5 284 150.3C284 144.6 288.6 140.1 294.2 140.1L360 140C375.5 140 388 127.5 388 112C388 96.5 375.5 84 360 84L344 84L344 72C344 58.7 333.3 48 320 48zM141.3 405.5L98.7 448L64 448C46.3 448 32 462.3 32 480L32 544C32 561.7 46.3 576 64 576L384.5 576C413.5 576 441.8 566.7 465.2 549.5L591.8 456.2C609.6 443.1 613.4 418.1 600.3 400.3C587.2 382.5 562.2 378.7 544.4 391.8L424.6 480L312 480C298.7 480 288 469.3 288 456C288 442.7 298.7 432 312 432L384 432C401.7 432 416 417.7 416 400C416 382.3 401.7 368 384 368L231.8 368C197.9 368 165.3 381.5 141.3 405.5z"/></symbol>

<symbol id="latest-jobs-updated" viewBox="0 0 640 640">
	<path d="M264 112L376 112C380.4 112 384 115.6 384 120L384 160L256 160L256 120C256 115.6 259.6 112 264 112zM208 120L208 160L128 160C92.7 160 64 188.7 64 224L64 320L369 320C402.8 290.1 447.3 272 496 272C524.6 272 551.6 278.2 576 289.4L576 224C576 188.7 547.3 160 512 160L432 160L432 120C432 89.1 406.9 64 376 64L264 64C233.1 64 208 89.1 208 120zM288 416C270.3 416 256 401.7 256 384L256 368L64 368L64 480C64 515.3 92.7 544 128 544L321.4 544C310.2 519.6 304 492.6 304 464C304 447.4 306.1 431.3 310 416L288 416zM640 464C640 384.5 575.5 320 496 320C416.5 320 352 384.5 352 464C352 543.5 416.5 608 496 608C575.5 608 640 543.5 640 464zM496 384C504.8 384 512 391.2 512 400L512 448L544 448C552.8 448 560 455.2 560 464C560 472.8 552.8 480 544 480L496 480C487.2 480 480 472.8 480 464L480 400C480 391.2 487.2 384 496 384z"/></symbol>


<symbol id="govt" viewBox="0 0 640 640">
	<path d="M335.9 84.2C326.1 78.6 314 78.6 304.1 84.2L80.1 212.2C67.5 219.4 61.3 234.2 65 248.2C68.7 262.2 81.5 272 96 272L128 272L128 480L128 480L76.8 518.4C68.7 524.4 64 533.9 64 544C64 561.7 78.3 576 96 576L544 576C561.7 576 576 561.7 576 544C576 533.9 571.3 524.4 563.2 518.4L512 480L512 272L544 272C558.5 272 571.2 262.2 574.9 248.2C578.6 234.2 572.4 219.4 559.8 212.2L335.8 84.2zM464 272L464 480L400 480L400 272L464 272zM352 272L352 480L288 480L288 272L352 272zM240 272L240 480L176 480L176 272L240 272zM320 160C337.7 160 352 174.3 352 192C352 209.7 337.7 224 320 224C302.3 224 288 209.7 288 192C288 174.3 302.3 160 320 160z"/></symbol>

<symbol id="private" viewBox="0 0 640 640">
	<path d="M264 112L376 112C380.4 112 384 115.6 384 120L384 160L256 160L256 120C256 115.6 259.6 112 264 112zM208 120L208 160L128 160C92.7 160 64 188.7 64 224L64 320L576 320L576 224C576 188.7 547.3 160 512 160L432 160L432 120C432 89.1 406.9 64 376 64L264 64C233.1 64 208 89.1 208 120zM576 368L384 368L384 384C384 401.7 369.7 416 352 416L288 416C270.3 416 256 401.7 256 384L256 368L64 368L64 480C64 515.3 92.7 544 128 544L512 544C547.3 544 576 515.3 576 480L576 368z"/></symbol>

<symbol id="news" viewBox="0 0 640 640">
	<path d="M64 480L64 184C64 170.7 74.7 160 88 160C101.3 160 112 170.7 112 184L112 472C112 485.3 122.7 496 136 496C149.3 496 160 485.3 160 472L160 160C160 124.7 188.7 96 224 96L512 96C547.3 96 576 124.7 576 160L576 480C576 515.3 547.3 544 512 544L128 544C92.7 544 64 515.3 64 480zM224 192L224 256C224 273.7 238.3 288 256 288L320 288C337.7 288 352 273.7 352 256L352 192C352 174.3 337.7 160 320 160L256 160C238.3 160 224 174.3 224 192zM248 432C234.7 432 224 442.7 224 456C224 469.3 234.7 480 248 480L488 480C501.3 480 512 469.3 512 456C512 442.7 501.3 432 488 432L248 432zM224 360C224 373.3 234.7 384 248 384L488 384C501.3 384 512 373.3 512 360C512 346.7 501.3 336 488 336L248 336C234.7 336 224 346.7 224 360zM424 240C410.7 240 400 250.7 400 264C400 277.3 410.7 288 424 288L488 288C501.3 288 512 277.3 512 264C512 250.7 501.3 240 488 240L424 240z"/></symbol>
<symbol id="daily_news" viewBox="0 0 640 640">
	<path d="M224 64C241.7 64 256 78.3 256 96L256 128L384 128L384 96C384 78.3 398.3 64 416 64C433.7 64 448 78.3 448 96L448 128L480 128C515.3 128 544 156.7 544 192L544 480C544 515.3 515.3 544 480 544L160 544C124.7 544 96 515.3 96 480L96 192C96 156.7 124.7 128 160 128L192 128L192 96C192 78.3 206.3 64 224 64zM224 320C206.3 320 192 334.3 192 352L192 416C192 433.7 206.3 448 224 448L288 448C305.7 448 320 433.7 320 416L320 352C320 334.3 305.7 320 288 320L224 320z"/></symbol>

<symbol id="ai_news" viewBox="0 0 640 640">
	<path d="M240 88C240 74.7 229.3 64 216 64C202.7 64 192 74.7 192 88L192 128C156.7 128 128 156.7 128 192L88 192C74.7 192 64 202.7 64 216C64 229.3 74.7 240 88 240L128 240L128 296L88 296C74.7 296 64 306.7 64 320C64 333.3 74.7 344 88 344L128 344L128 400L88 400C74.7 400 64 410.7 64 424C64 437.3 74.7 448 88 448L128 448C128 483.3 156.7 512 192 512L192 552C192 565.3 202.7 576 216 576C229.3 576 240 565.3 240 552L240 512L296 512L296 552C296 565.3 306.7 576 320 576C333.3 576 344 565.3 344 552L344 512L400 512L400 552C400 565.3 410.7 576 424 576C437.3 576 448 565.3 448 552L448 512C483.3 512 512 483.3 512 448L552 448C565.3 448 576 437.3 576 424C576 410.7 565.3 400 552 400L512 400L512 344L552 344C565.3 344 576 333.3 576 320C576 306.7 565.3 296 552 296L512 296L512 240L552 240C565.3 240 576 229.3 576 216C576 202.7 565.3 192 552 192L512 192C512 156.7 483.3 128 448 128L448 88C448 74.7 437.3 64 424 64C410.7 64 400 74.7 400 88L400 128L344 128L344 88C344 74.7 333.3 64 320 64C306.7 64 296 74.7 296 88L296 128L240 128L240 88zM224 192L416 192C433.7 192 448 206.3 448 224L448 416C448 433.7 433.7 448 416 448L224 448C206.3 448 192 433.7 192 416L192 224C192 206.3 206.3 192 224 192zM240 240L240 400L400 400L400 240L240 240z"/></symbol>

 <symbol id="icon-facebook" viewBox="0 0 320 512">
    <path
      fill="currentColor"
      d="m279.14 288l14.22-92.66h-88.91v-60.13c0-25.35 12.42-50.06 52.24-50.06h40.42V6.26S260.43 0 225.36 0c-73.22 0-121.08 44.38-121.08 124.72v70.62H22.89V288h81.39v224h100.17V288z"
    />
  </symbol>

  <symbol id="icon-instagram" viewBox="0 0 448 512">
    <path
      fill="currentColor"
      d="M224.1 141c-63.6 0-114.9 51.3-114.9 114.9s51.3 114.9 114.9 114.9S339 319.5 339 255.9S287.7 141 224.1 141zm0 189.6c-41.1 0-74.7-33.5-74.7-74.7s33.5-74.7 74.7-74.7s74.7 33.5 74.7 74.7s-33.6 74.7-74.7 74.7zm146.4-194.3c0 14.9-12 26.8-26.8 26.8c-14.9 0-26.8-12-26.8-26.8s12-26.8 26.8-26.8s26.8 12 26.8 26.8zm76.1 27.2c-1.7-35.9-9.9-67.7-36.2-93.9c-26.2-26.2-58-34.4-93.9-36.2c-37-2.1-147.9-2.1-184.9 0c-35.8 1.7-67.6 9.9-93.9 36.1s-34.4 58-36.2 93.9c-2.1 37-2.1 147.9 0 184.9c1.7 35.9 9.9 67.7 36.2 93.9s58 34.4 93.9 36.2c37 2.1 147.9 2.1 184.9 0c35.9-1.7 67.7-9.9 93.9-36.2c26.2-26.2 34.4-58 36.2-93.9c2.1-37 2.1-147.8 0-184.8zM398.8 388c-7.8 19.6-22.9 34.7-42.6 42.6c-29.5 11.7-99.5 9-132.1 9s-102.7 2.6-132.1-9c-19.6-7.8-34.7-22.9-42.6-42.6c-11.7-29.5-9-99.5-9-132.1s-2.6-102.7 9-132.1c7.8-19.6 22.9-34.7 42.6-42.6c29.5-11.7 99.5-9 132.1-9s102.7-2.6 132.1 9c19.6 7.8 34.7 22.9 42.6 42.6c11.7 29.5 9 99.5 9 132.1s2.7 102.7-9 132.1z"
    />
  </symbol>

  <symbol id="icon-twitter" viewBox="0 0 512 512">
    <path
      d="M389.2 48h70.6L305.6 224.2 487 464H345L233.7 318.6 106.5 464H35.8L200.7 275.5 26.8 48H172.4L272.9 180.9 389.2 48zM364.4 421.8h39.1L151.1 88h-42L364.4 421.8z"
    />
  </symbol>

  <symbol id="icon-linkedin" viewBox="0 0 448 512">
    <path
      fill="currentColor"
      d="M100.28 448H7.4V148.9h92.88zM53.79 108.1C24.09 108.1 0 83.5 0 53.8a53.79 53.79 0 0 1 107.58 0c0 29.7-24.1 54.3-53.79 54.3zM447.9 448h-92.68V302.4c0-34.7-.7-79.2-48.29-79.2c-48.29 0-55.69 37.7-55.69 76.7V448h-92.78V148.9h89.08v40.8h1.3c12.4-23.5 42.69-48.3 87.88-48.3c94 0 111.28 61.9 111.28 142.3V448z"
    />
  </symbol>

  <symbol id="icon-email" viewBox="0 0 512 512">
    <path
      d="M48 64C21.5 64 0 85.5 0 112c0 15.1 7.1 29.3 19.2 38.4L236.8 313.6c11.4 8.5 27 8.5 38.4 0L492.8 150.4c12.1-9.1 19.2-23.3 19.2-38.4c0-26.5-21.5-48-48-48L48 64zM0 176L0 384c0 35.3 28.7 64 64 64l384 0c35.3 0 64-28.7 64-64l0-208L294.4 339.2c-22.8 17.1-54 17.1-76.8 0L0 176z"
    />
  </symbol>

<symbol id="icon-telegram" viewBox="0 0 50 50">
    <path d="M46.137,6.552c-0.75-0.636-1.928-0.727-3.146-0.238l-0.002,0C41.708,6.828,6.728,21.832,5.304,22.445	c-0.259,0.09-2.521,0.934-2.288,2.814c0.208,1.695,2.026,2.397,2.248,2.478l8.893,3.045c0.59,1.964,2.765,9.21,3.246,10.758	c0.3,0.965,0.789,2.233,1.646,2.494c0.752,0.29,1.5,0.025,1.984-0.355l5.437-5.043l8.777,6.845l0.209,0.125	c0.596,0.264,1.167,0.396,1.712,0.396c0.421,0,0.825-0.079,1.211-0.237c1.315-0.54,1.841-1.793,1.896-1.935l6.556-34.077	C47.231,7.933,46.675,7.007,46.137,6.552z M22,32l-3,8l-3-10l23-17L22,32z"/>
  </symbol>

<symbol id="icon-reddit" viewBox="0 0 512 512">
    <path d="M373 138.6c-25.2 0-46.3-17.5-51.9-41-30.6 4.3-54.2 30.7-54.2 62.4l0 .2c47.4 1.8 90.6 15.1 124.9 36.3 12.6-9.7 28.4-15.5 45.5-15.5 41.3 0 74.7 33.4 74.7 74.7 0 29.8-17.4 55.5-42.7 67.5-2.4 86.8-97 156.6-213.2 156.6S45.5 410.1 43 323.4c-25.4-11.9-43-37.7-43-67.7 0-41.3 33.4-74.7 74.7-74.7 17.2 0 33 5.8 45.7 15.6 34-21.1 76.8-34.4 123.7-36.4l0-.3c0-44.3 33.7-80.9 76.8-85.5 4.9-24.2 26.3-42.4 52.1-42.4 29.4 0 53.3 23.9 53.3 53.3s-23.9 53.3-53.3 53.3zM157.5 255.3c-20.9 0-38.9 20.8-40.2 47.9s17.1 38.1 38 38.1 36.6-9.8 37.8-36.9-14.7-49.1-35.7-49.1l.1 0zM395 303.1c-1.2-27.1-19.2-47.9-40.2-47.9s-36.9 22-35.7 49.1 16.9 36.9 37.8 36.9 39.3-11 38-38.1l.1 0zm-60.1 70.8c1.5-3.6-1-7.7-4.9-8.1-23-2.3-47.9-3.6-73.8-3.6s-50.8 1.3-73.8 3.6c-3.9 .4-6.4 4.5-4.9 8.1 12.9 30.8 43.3 52.4 78.7 52.4s65.8-21.6 78.7-52.4z"/>
  </symbol>

<symbol id="icon-youtube" viewBox="0 0 576 512">
    <path d="M549.7 124.1C543.5 100.4 524.9 81.8 501.4 75.5 458.9 64 288.1 64 288.1 64S117.3 64 74.7 75.5C51.2 81.8 32.7 100.4 26.4 124.1 15 167 15 256.4 15 256.4s0 89.4 11.4 132.3c6.3 23.6 24.8 41.5 48.3 47.8 42.6 11.5 213.4 11.5 213.4 11.5s170.8 0 213.4-11.5c23.5-6.3 42-24.2 48.3-47.8 11.4-42.9 11.4-132.3 11.4-132.3s0-89.4-11.4-132.3zM232.2 337.6l0-162.4 142.7 81.2-142.7 81.2z"/>
  </symbol>

<symbol id="icon-whatsapp" viewBox="0 0 448 512">
    <path d="M380.9 97.1c-41.9-42-97.7-65.1-157-65.1-122.4 0-222 99.6-222 222 0 39.1 10.2 77.3 29.6 111L0 480 117.7 449.1c32.4 17.7 68.9 27 106.1 27l.1 0c122.3 0 224.1-99.6 224.1-222 0-59.3-25.2-115-67.1-157zm-157 341.6c-33.2 0-65.7-8.9-94-25.7l-6.7-4-69.8 18.3 18.6-68.1-4.4-7c-18.5-29.4-28.2-63.3-28.2-98.2 0-101.7 82.8-184.5 184.6-184.5 49.3 0 95.6 19.2 130.4 54.1s56.2 81.2 56.1 130.5c0 101.8-84.9 184.6-186.6 184.6zM325.1 300.5c-5.5-2.8-32.8-16.2-37.9-18-5.1-1.9-8.8-2.8-12.5 2.8s-14.3 18-17.6 21.8c-3.2 3.7-6.5 4.2-12 1.4-32.6-16.3-54-29.1-75.5-66-5.7-9.8 5.7-9.1 16.3-30.3 1.8-3.7 .9-6.9-.5-9.7s-12.5-30.1-17.1-41.2c-4.5-10.8-9.1-9.3-12.5-9.5-3.2-.2-6.9-.2-10.6-.2s-9.7 1.4-14.8 6.9c-5.1 5.6-19.4 19-19.4 46.3s19.9 53.7 22.6 57.4c2.8 3.7 39.1 59.7 94.8 83.8 35.2 15.2 49 16.5 66.6 13.9 10.7-1.6 32.8-13.4 37.4-26.4s4.6-24.1 3.2-26.4c-1.3-2.5-5-3.9-10.5-6.6z"/>
  </symbol>

<symbol id="icon-pinterest" viewBox="0 0 384 512">
    <path d="M204 6.5c-102.6 0-204 68.4-204 179.1 0 70.4 39.6 110.4 63.6 110.4 9.9 0 15.6-27.6 15.6-35.4 0-9.3-23.7-29.1-23.7-67.8 0-80.4 61.2-137.4 140.4-137.4 68.1 0 118.5 38.7 118.5 109.8 0 53.1-21.3 152.7-90.3 152.7-24.9 0-46.2-18-46.2-43.8 0-37.8 26.4-74.4 26.4-113.4 0-66.2-93.9-54.2-93.9 25.8 0 16.8 2.1 35.4 9.6 50.7-13.8 59.4-42 147.9-42 209.1 0 18.9 2.7 37.5 4.5 56.4 3.4 3.8 1.7 3.4 6.9 1.5 50.4-69 48.6-82.5 71.4-172.8 12.3 23.4 44.1 36 69.3 36 106.2 0 153.9-103.5 153.9-196.8 0-99.3-85.8-164.1-180-164.1z"/>
  </symbol>

<symbol id="icon-threads" viewBox="0 0 448 512">
   <path d="M331.5 235.7c2.2 .9 4.2 1.9 6.3 2.8 29.2 14.1 50.6 35.2 61.8 61.4 15.7 36.5 17.2 95.8-30.3 143.2-36.2 36.2-80.3 52.5-142.6 53l-.3 0c-70.2-.5-124.1-24.1-160.4-70.2-32.3-41-48.9-98.1-49.5-169.6l0-.5C17 184.3 33.6 127.2 65.9 86.2 102.2 40.1 156.2 16.5 226.4 16l.3 0c70.3 .5 124.9 24 162.3 69.9 18.4 22.7 32 50 40.6 81.7l-40.4 10.8c-7.1-25.8-17.8-47.8-32.2-65.4-29.2-35.8-73-54.2-130.5-54.6-57 .5-100.1 18.8-128.2 54.4-26.2 33.3-39.8 81.5-40.3 143.2 .5 61.7 14.1 109.9 40.3 143.3 28 35.6 71.2 53.9 128.2 54.4 51.4-.4 85.4-12.6 113.7-40.9 32.3-32.2 31.7-71.8 21.4-95.9-6.1-14.2-17.1-26-31.9-34.9-3.7 26.9-11.8 48.3-24.7 64.8-17.1 21.8-41.4 33.6-72.7 35.3-23.6 1.3-46.3-4.4-63.9-16-20.8-13.8-33-34.8-34.3-59.3-2.5-48.3 35.7-83 95.2-86.4 21.1-1.2 40.9-.3 59.2 2.8-2.4-14.8-7.3-26.6-14.6-35.2-10-11.7-25.6-17.7-46.2-17.8l-.7 0c-16.6 0-39 4.6-53.3 26.3l-34.4-23.6c19.2-29.1 50.3-45.1 87.8-45.1l.8 0c62.6 .4 99.9 39.5 103.7 107.7l-.2 .2 .1 0zm-156 68.8c1.3 25.1 28.4 36.8 54.6 35.3 25.6-1.4 54.6-11.4 59.5-73.2-13.2-2.9-27.8-4.4-43.4-4.4-4.8 0-9.6 .1-14.4 .4-42.9 2.4-57.2 23.2-56.2 41.8l-.1 .1z"/>
  </symbol>


  </svg>
