<?xml version="1.0" encoding="UTF-8" standalone="no"?>
<!-- Created with Inkscape (http://www.inkscape.org/) -->

<svg
   width="63.502167mm"
   height="62.847855mm"
   viewBox="0 0 63.502167 62.847855"
   version="1.1"
   id="svg5"
   xml:space="preserve"
   xmlns:inkscape="http://www.inkscape.org/namespaces/inkscape"
   xmlns:sodipodi="http://sodipodi.sourceforge.net/DTD/sodipodi-0.dtd"
   xmlns="http://www.w3.org/2000/svg"
   xmlns:svg="http://www.w3.org/2000/svg"><sodipodi:namedview
     id="namedview7"
     pagecolor="#ffffff"
     bordercolor="#000000"
     borderopacity="0.25"
     inkscape:showpageshadow="2"
     inkscape:pageopacity="0.0"
     inkscape:pagecheckerboard="0"
     inkscape:deskcolor="#d1d1d1"
     inkscape:document-units="mm"
     showgrid="false" /><defs
     id="defs2" /><g
     inkscape:label="Layer 1"
     inkscape:groupmode="layer"
     id="layer1"
     transform="translate(198.08141,-75.954771)"><path
       id="rect354"
       style="opacity:1;fill:#ffffff;fill-opacity:1;stroke-width:10.5408;stroke-linecap:round;stroke-linejoin:round"
       d="m -197.47939,110.62862 c -0.33366,0 -0.60203,0.26889 -0.60203,0.60255 v 26.9689 c 0,0.33366 0.26837,0.60255 0.60203,0.60255 h 9.85315 c 0.38263,0 0.58042,-1.5e-4 0.92552,-0.27751 0.3451,-0.27736 0.83788,-0.83212 1.08417,-1.10949 0.2463,-0.27738 0.24623,-0.27706 0.87643,-0.94775 0.63021,-0.67069 1.89042,-2.01231 2.61742,-2.7776 0.72699,-0.76528 0.92074,-0.95439 1.0175,-1.21595 0.0447,-0.12072 0.0687,-0.25582 0.0966,-0.31884 v -20.92431 c 0,-0.33366 -0.26889,-0.60255 -0.60255,-0.60255 z m 3.70727,4.70256 h 2.55178 c 0.22757,0 0.41083,0.18326 0.41083,0.41083 v 4.24057 c 0,0.22757 -0.18326,0.41082 -0.41083,0.41082 h -2.55178 c -0.22757,0 -0.41083,-0.18325 -0.41083,-0.41082 v -4.24057 c 0,-0.22757 0.18326,-0.41083 0.41083,-0.41083 z m 6.15156,0 h 2.55127 c 0.22757,0 0.41082,0.18326 0.41082,0.41083 v 4.24057 c 0,0.22757 -0.18325,0.41082 -0.41082,0.41082 h -2.55127 c -0.22757,0 -0.41083,-0.18325 -0.41083,-0.41082 v -4.24057 c 0,-0.22757 0.18326,-0.41083 0.41083,-0.41083 z m -6.15156,8.70179 h 2.55178 c 0.22757,0 0.41083,0.18326 0.41083,0.41083 v 4.24057 c 0,0.22757 -0.18326,0.41083 -0.41083,0.41083 h -2.55178 c -0.22757,0 -0.41083,-0.18326 -0.41083,-0.41083 v -4.24057 c 0,-0.22757 0.18326,-0.41083 0.41083,-0.41083 z m 6.15156,0 h 2.55127 c 0.22757,0 0.41082,0.18326 0.41082,0.41083 v 4.24057 c 0,0.22757 -0.18325,0.41083 -0.41082,0.41083 h -2.55127 c -0.22757,0 -0.41083,-0.18326 -0.41083,-0.41083 v -4.24057 c 0,-0.22757 0.18326,-0.41083 0.41083,-0.41083 z"
       inkscape:export-filename="logo.svg"
       inkscape:export-xdpi="431.98529"
       inkscape:export-ydpi="431.98529" /><path
       id="path2966"
       style="opacity:1;fill:#ffffff;fill-opacity:1;stroke-width:10.5408;stroke-linecap:round;stroke-linejoin:round"
       d="m -135.18128,110.62862 c 0.33366,0 0.60203,0.26889 0.60203,0.60255 v 26.9689 c 0,0.33366 -0.26837,0.60255 -0.60203,0.60255 h -9.85314 c -0.38264,0 -0.58042,-1.5e-4 -0.92553,-0.27751 -0.3451,-0.27736 -0.83788,-0.83212 -1.08417,-1.10949 -0.24629,-0.27738 -0.24623,-0.27706 -0.87643,-0.94775 -0.6302,-0.67069 -1.89042,-2.01231 -2.61741,-2.7776 -0.727,-0.76528 -0.92075,-0.95439 -1.01751,-1.21595 -0.0447,-0.12072 -0.0687,-0.25582 -0.0966,-0.31884 v -20.92431 c 0,-0.33366 0.26889,-0.60255 0.60255,-0.60255 z m -3.70727,4.70256 h -2.55178 c -0.22757,0 -0.41083,0.18326 -0.41083,0.41083 v 4.24057 c 0,0.22757 0.18326,0.41082 0.41083,0.41082 h 2.55178 c 0.22758,0 0.41083,-0.18325 0.41083,-0.41082 v -4.24057 c 0,-0.22757 -0.18325,-0.41083 -0.41083,-0.41083 z m -6.15156,0 h -2.55126 c -0.22758,0 -0.41083,0.18326 -0.41083,0.41083 v 4.24057 c 0,0.22757 0.18325,0.41082 0.41083,0.41082 h 2.55126 c 0.22757,0 0.41083,-0.18325 0.41083,-0.41082 v -4.24057 c 0,-0.22757 -0.18326,-0.41083 -0.41083,-0.41083 z m 6.15156,8.70179 h -2.55178 c -0.22757,0 -0.41083,0.18326 -0.41083,0.41083 v 4.24057 c 0,0.22757 0.18326,0.41083 0.41083,0.41083 h 2.55178 c 0.22758,0 0.41083,-0.18326 0.41083,-0.41083 v -4.24057 c 0,-0.22757 -0.18325,-0.41083 -0.41083,-0.41083 z m -6.15156,0 h -2.55126 c -0.22758,0 -0.41083,0.18326 -0.41083,0.41083 v 4.24057 c 0,0.22757 0.18325,0.41083 0.41083,0.41083 h 2.55126 c 0.22757,0 0.41083,-0.18326 0.41083,-0.41083 v -4.24057 c 0,-0.22757 -0.18326,-0.41083 -0.41083,-0.41083 z" /><path
       id="rect2972"
       style="opacity:1;fill:#ffffff;fill-opacity:1;stroke-width:14.803;stroke-linecap:round;stroke-linejoin:round"
       d="m -166.25029,105.61498 c -0.89718,7e-4 -8.25416,2.24652 -10.47481,2.85564 -2.22099,0.60921 -2.53596,0.7044 -2.69338,0.93689 -0.0598,0.0884 -0.0964,0.19708 -0.11937,0.32091 -0.0239,0.0696 -0.0377,0.14383 -0.0377,0.22169 v 0.49093 22.57588 c 0,0.37672 0.30335,0.68006 0.68006,0.68006 h 2.00091 v -0.002 h 2.31355 c 0.2257,0 0.41054,-0.16689 0.43925,-0.38447 v -19.37659 c 0,-0.24577 0.19764,-0.4439 0.44338,-0.4439 h 4.2261 c 0.24577,0 0.4439,0.19813 0.4439,0.4439 v 16.846 h 0.009 v 2.47168 c 0,0.24577 0.19762,0.44338 0.44338,0.44338 h 2.31356 v 0.002 h 2.18229 c 0.21425,-0.0316 0.37776,-0.21485 0.37776,-0.43821 v -2.47169 h 10e-4 V 113.7814 c 0,-0.24576 0.19762,-0.4439 0.44338,-0.4439 h 4.2261 c 0.24577,0 0.44339,0.19814 0.44339,0.4439 v 16.99897 h 0.003 v 2.47168 c 0,0.24577 0.19762,0.44338 0.44338,0.44338 h 2.31356 v 0.002 h 2.22467 c 0.37671,0 0.67954,-0.30334 0.67954,-0.68006 v -22.86165 -0.20516 c 0,-0.0134 -8.6e-4,-0.0266 -0.002,-0.0398 -0.005,-0.27598 -0.0306,-0.44886 -0.15089,-0.58187 -0.15285,-0.16904 -0.45899,-0.28065 -2.67994,-0.88987 -2.22061,-0.60913 -9.5959,-2.82291 -10.49238,-2.8236 z" /><path
       id="rect2987"
       style="opacity:1;fill:#ffffff;fill-opacity:1;stroke-width:11.559;stroke-linecap:round;stroke-linejoin:round"
       d="m -184.12568,102.01623 c -0.40701,0 -0.73484,0.32732 -0.73484,0.73432 v 5.72885 c 0,0.40701 0.32783,0.73432 0.73484,0.73432 h 3.11712 v -0.52244 c 0,-0.0829 0.015,-0.16207 0.0413,-0.23617 0.0253,-0.13188 0.0659,-0.24789 0.13178,-0.34209 0.1734,-0.24759 0.52028,-0.34907 2.96674,-0.99788 2.44611,-0.64872 10.55026,-3.04047 11.53831,-3.04115 h 5.2e-4 c 0.98731,6.7e-4 9.11139,2.35882 11.55743,3.00756 2.44641,0.64883 2.78391,0.7672 2.95228,0.94723 0.13261,0.14166 0.15988,0.32619 0.16588,0.62012 0.001,0.0139 0.002,0.0281 0.002,0.0424 v 0.21807 0.30437 h 3.27784 c 0.40701,0 0.73484,-0.32731 0.73484,-0.73432 v -5.72885 c 0,-0.407 -0.32783,-0.73432 -0.73484,-0.73432 z" /><path
       id="path3064"
       style="opacity:1;fill:#ffffff;fill-opacity:1;stroke-width:10.1935;stroke-linecap:round;stroke-linejoin:round"
       d="m -166.55311,75.954771 c -0.38239,0 -0.68989,0.308015 -0.68989,0.690397 v 8.736418 h -0.51469 c -0.25438,0 -0.45941,0.205027 -0.45941,0.459403 v 2.376083 c -1.19904,0.219956 -2.35166,0.643253 -3.40806,1.251603 -3.08459,1.781299 -5.08014,4.981157 -5.32267,8.534879 h -5.1e-4 l -5.2e-4,0.01189 c -0.0163,0.238573 -0.0246,0.477625 -0.0248,0.716752 h 5.2e-4 c 0,0 -5.2e-4,2.95e-4 -5.2e-4,0.306441 0,0.306148 2.9e-4,0.917814 0.10387,1.223703 0.10358,0.30588 0.31054,0.30592 3.73103,0.30592 h 13.51649 c 3.46213,0 3.7524,-3e-5 3.89743,-0.30592 0.14503,-0.305896 0.14483,-0.917842 0.14315,-1.301217 -4.5e-4,-0.103181 -9e-4,-0.155498 -0.002,-0.228927 h 0.004 c -7e-5,-0.193896 -0.005,-0.387754 -0.016,-0.58136 v -5.17e-4 -5.16e-4 -5.17e-4 c -1.3e-4,-0.0028 -3.9e-4,-0.0091 -5.2e-4,-0.01189 h -5.2e-4 c -0.2007,-3.604034 -2.20552,-6.863777 -5.33146,-8.668721 -1.0564,-0.60835 -2.20902,-1.031647 -3.40806,-1.251603 v -2.376083 c 0,-0.254376 -0.20502,-0.459403 -0.4594,-0.459403 h -0.5147 v -1.871721 c 0.14598,0.07413 0.32486,0.154645 0.56069,0.224793 0.37402,0.111249 0.8906,0.196253 1.39372,0.198437 0.50311,0.0022 0.99288,-0.07829 1.58285,-0.211873 0.58996,-0.133587 1.27998,-0.320384 2.08152,-0.371554 0.80154,-0.05117 1.71441,0.03327 2.389,0.131259 0.6746,0.09799 1.17297,0.445935 1.42045,0.50603 0.24747,0.06009 0.24437,-0.167475 0.27351,-1.051217 0.0291,-0.883745 0.0288,-2.660345 0.006,-3.642155 -0.0226,-0.98181 -0.0675,-1.168999 -0.25477,-1.369425 -0.18725,-0.200426 -0.51694,-0.414173 -1.20044,-0.532267 -0.6835,-0.118095 -1.72073,-0.140113 -2.83394,-0.03772 -1.1132,0.102388 -2.30225,0.329574 -3.21789,0.322977 -0.91563,-0.0066 -1.55806,-0.247138 -1.87947,-0.367419 -0.17702,-0.06625 -0.25608,-0.09559 -0.32143,-0.110071 v -0.554488 c 0,-0.382382 -0.30749,-0.690397 -0.68988,-0.690397 z"
       sodipodi:nodetypes="sscsscccccccssssssccsccsccccssccssssssssssssscsss" /><path
       id="rect3082"
       style="opacity:1;fill:#ffffff;fill-opacity:1;stroke-width:10.937;stroke-linecap:round;stroke-linejoin:round"
       d="m -180.78922,135.12894 c -0.41841,0 -0.86768,0.45833 -1.1622,0.75551 l -2.14406,2.16317 c -0.29453,0.29719 -0.31454,0.755 0.10387,0.755 h 17.1788 1.07177 17.17931 c 0.4184,0 0.3984,-0.45781 0.10387,-0.755 l -2.14406,-2.16317 c -0.29451,-0.29718 -0.7438,-0.75551 -1.1622,-0.75551 h -13.97692 -1.07177 z" /></g></svg>
